<?xml version="1.0" encoding="UTF-8"?><svg id="a" xmlns="http://www.w3.org/2000/svg" viewBox="0 0 96 96"><g id="b"><path d="m45.49.65c1.55-.87,3.46-.87,5.02,0,7.66,4.3,30.74,17.26,38.41,21.56,1.55.88,2.51,2.48,2.51,4.22v43.13c0,1.74-.96,3.35-2.51,4.22-7.67,4.3-30.74,17.26-38.41,21.56-1.55.87-3.46.87-5.02,0-7.67-4.3-30.74-17.26-38.41-21.56-1.55-.88-2.51-2.48-2.51-4.22V26.44c0-1.74.96-3.35,2.51-4.22C14.74,17.91,37.83,4.95,45.49.65Z" fill="#283593" fill-rule="evenodd" stroke-width="0"/><path d="m5.27,71.78c-.61-.81-.7-1.58-.7-2.63V26.28c0-1.73.96-3.33,2.5-4.2C14.71,17.8,37.71,4.92,45.36.64c1.54-.87,3.64-.85,5.19.02,7.64,4.28,30.56,17.05,38.21,21.32.62.35,1.09.77,1.51,1.32L5.27,71.78Z" fill="#5c6bc0" fill-rule="evenodd" stroke-width="0"/><path d="m48,16c17.66,0,32,14.34,32,32s-14.34,32-32,32S16,65.66,16,48,30.34,16,48,16Zm0,16c8.83,0,16,7.17,16,16s-7.17,16-16,16-16-7.17-16-16,7.17-16,16-16Z" fill="#fff" fill-rule="evenodd" stroke-width="0"/><path d="m90.25,23.32c1.18,1.11,1.16,2.77,1.16,4.08,0,8.68-.07,33.35.02,42.02,0,.91-.29,1.87-.74,2.58l-43.62-24,43.18-24.68Z" fill="#3949ab" fill-rule="evenodd" stroke-width="0"/></g></svg>