<?xml version="1.0" encoding="UTF-8"?><svg id="a" xmlns="http://www.w3.org/2000/svg" viewBox="0 0 96 96"><path d="m48,96c-1.32,0-2.56-.35-3.7-.97l-11.73-6.97c-1.76-.97-.88-1.32-.35-1.5,2.38-.79,2.82-.97,5.29-2.38.26-.18.62-.09.88.09l9,5.38c.35.18.79.18,1.06,0l35.19-20.37c.35-.18.53-.53.53-.97V27.65c0-.44-.18-.79-.53-.97L48.44,6.39c-.35-.18-.79-.18-1.06,0L12.19,26.68c-.35.18-.53.62-.53.97v40.66c0,.35.18.79.53.97l9.61,5.56c5.2,2.65,8.47-.44,8.47-3.53V31.18c0-.53.44-1.06,1.06-1.06h4.5c.53,0,1.06.44,1.06,1.06v40.13c0,6.97-3.79,11.02-10.41,11.02-2.03,0-3.62,0-8.11-2.2l-9.26-5.29c-2.29-1.32-3.7-3.79-3.7-6.44V27.74c0-2.65,1.41-5.12,3.7-6.44L44.3.93c2.2-1.23,5.2-1.23,7.41,0l35.19,20.37c2.29,1.32,3.7,3.79,3.7,6.44v40.66c0,2.65-1.41,5.12-3.7,6.44l-35.19,20.37c-1.15.53-2.47.79-3.7.79h0Zm10.85-27.96c-15.43,0-18.61-7.06-18.61-13.05,0-.53.44-1.06,1.06-1.06h4.59c.53,0,.97.35.97.88.71,4.67,2.73,6.97,12.08,6.97,7.41,0,10.58-1.68,10.58-5.64,0-2.29-.88-3.97-12.44-5.12-9.61-.97-15.61-3.09-15.61-10.76,0-7.14,6-11.38,16.05-11.38,11.29,0,16.85,3.88,17.55,12.35,0,.26-.09.53-.26.79-.18.18-.44.35-.71.35h-4.59c-.44,0-.88-.35-.97-.79-1.06-4.85-3.79-6.44-11.02-6.44-8.11,0-9.08,2.82-9.08,4.94,0,2.56,1.15,3.35,12.08,4.76,10.85,1.41,15.96,3.44,15.96,11.02-.09,7.76-6.44,12.17-17.64,12.17h0Z" fill="#539e43" stroke-width="0"/></svg>