<?xml version="1.0" encoding="UTF-8"?><svg id="a" xmlns="http://www.w3.org/2000/svg" xmlns:xlink="http://www.w3.org/1999/xlink" viewBox="0 0 96 96"><defs><linearGradient id="d" x1="53.73" y1="237.91" x2="101.45" y2="190.04" gradientTransform="translate(-44.94 246.53) scale(1 -1)" gradientUnits="userSpaceOnUse"><stop offset="0" stop-color="#387eb8"/><stop offset="1" stop-color="#366994"/></linearGradient><linearGradient id="f" x1="83.08" y1="207.44" x2="134.33" y2="158.34" gradientTransform="translate(-44.94 246.53) scale(1 -1)" gradientUnits="userSpaceOnUse"><stop offset="0" stop-color="#ffe052"/><stop offset="1" stop-color="#ffc331"/></linearGradient></defs><g id="b"><g id="c"><path id="e" d="m47.65,0c-24.5,0-22.97,10.62-22.97,10.62l.03,11.01h23.38v3.3H15.43S-.25,23.16-.25,47.88c0,24.72,13.68,23.84,13.68,23.84h8.17v-11.47s-.44-13.68,13.46-13.68h23.19s13.03.21,13.03-12.59V12.81S73.25,0,47.65,0Zm-12.89,7.4c2.33,0,4.21,1.88,4.21,4.21s-1.88,4.21-4.21,4.21-4.21-1.88-4.21-4.21,1.88-4.21,4.21-4.21Z" fill="url(#d)" stroke-width="0"/><path id="g" d="m48.35,96c24.5,0,22.97-10.62,22.97-10.62l-.03-11.01h-23.38v-3.3h32.66s15.68,1.78,15.68-22.94c0-24.72-13.68-23.84-13.68-23.84h-8.17v11.47s.44,13.68-13.46,13.68h-23.19s-13.03-.21-13.03,12.59v21.17s-1.98,12.81,23.62,12.81Zm12.89-7.4c-2.33,0-4.21-1.88-4.21-4.21s1.88-4.21,4.21-4.21,4.21,1.88,4.21,4.21c0,2.33-1.88,4.21-4.21,4.21Z" fill="url(#f)" stroke-width="0"/></g></g></svg>